<svg width="18" height="16" viewBox="0 0 18 16" fill="none" xmlns="http://www.w3.org/2000/svg">
<path d="M2.01375 0.23438C1.72125 -0.01875 1.27125 -0.01875 0.97875 0.23438C0.68625 0.4875 0.68625 0.8625 0.97875 1.11563L3.52125 3.30938C2.34 4.35938 1.41375 5.60625 0.82125 6.61563C0.555 7.09688 0.555 7.90313 0.82125 8.38438C1.51875 9.56563 2.6625 11.15625 4.2 12.4125L6.345 14.2656C6.6375 14.5188 7.0875 14.5188 7.38 14.2656C7.6725 14.0125 7.6725 13.6375 7.38 13.3844L5.58375 11.8313C5.22 11.5188 4.875 11.1844 4.55625 10.8375C3.28125 9.71875 2.34 8.38438 1.755 7.5C2.34 6.61563 3.28125 5.28125 4.55625 4.1625C5.83125 3.04375 7.3125 2.25 9 2.25C9.9 2.25 10.7438 2.46875 11.5313 2.8125L13.0875 4.15625C13.38 4.40938 13.83 4.40938 14.1225 4.15625C14.415 3.90313 14.415 3.52813 14.1225 3.275L2.01375 0.23438ZM14.4788 5.5875L16.9875 7.75625C16.7063 8.1625 16.3688 8.61875 15.975 9.09375L17.1788 10.1344C17.6625 9.5625 18.0788 8.97188 18.405 8.38438C18.675 7.90313 18.675 7.09688 18.405 6.61563C17.7075 5.43438 16.5638 3.84375 15.0188 2.58125C13.4625 1.30625 11.4375 0.25 9 0.25C7.6125 0.25 6.3375 0.60938 5.19 1.14063L6.5625 2.325C7.32375 2.08125 8.13375 1.9375 9 1.9375C10.6875 1.9375 12.1688 2.73438 13.4438 3.85C14.0625 4.39688 14.6063 4.99688 15.0563 5.5875H14.4788ZM6.75 7.5C6.75 6.90625 6.94125 6.35938 7.26375 5.91563L5.895 4.73438C5.2125 5.48438 4.8 6.44375 4.8 7.5C4.8 9.84375 6.68625 11.75 9 11.75C9.93375 11.75 10.7925 11.4188 11.475 10.8688L10.1063 9.6875C9.79875 9.88438 9.4125 10 9 10C7.76625 10 6.75 8.88125 6.75 7.5Z" fill="white" fill-opacity="0.5"/>
</svg>
