<svg preserveAspectRatio="none" width="100%" height="100%" overflow="visible" style="display: block;" viewBox="0 0 18 16" fill="none" xmlns="http://www.w3.org/2000/svg">
<g id="Frame">
<g clip-path="url(#clip0_0_12)">
<path id="Vector" d="M9 1C6.475 1 4.45312 2.15 2.98125 3.51875C1.51875 4.875 0.540625 6.5 0.078125 7.61562C-0.025 7.8625 -0.025 8.1375 0.078125 8.38437C0.540625 9.5 1.51875 11.125 2.98125 12.4812C4.45312 13.85 6.475 15 9 15C11.525 15 13.5469 13.85 15.0188 12.4812C16.4813 11.1219 17.4594 9.5 17.925 8.38437C18.0281 8.1375 18.0281 7.8625 17.925 7.61562C17.4594 6.5 16.4813 4.875 15.0188 3.51875C13.5469 2.15 11.525 1 9 1ZM4.5 8C4.5 6.80653 4.97411 5.66193 5.81802 4.81802C6.66193 3.97411 7.80653 3.5 9 3.5C10.1935 3.5 11.3381 3.97411 12.182 4.81802C13.0259 5.66193 13.5 6.80653 13.5 8C13.5 9.19347 13.0259 10.3381 12.182 11.182C11.3381 12.0259 10.1935 12.5 9 12.5C7.80653 12.5 6.66193 12.0259 5.81802 11.182C4.97411 10.3381 4.5 9.19347 4.5 8ZM9 6C9 7.10312 8.10313 8 7 8C6.77813 8 6.56563 7.9625 6.36563 7.89687C6.19375 7.84062 5.99375 7.94688 6 8.12813C6.00938 8.34375 6.04063 8.55937 6.1 8.775C6.52813 10.375 8.175 11.325 9.775 10.8969C11.375 10.4688 12.325 8.82188 11.8969 7.22188C11.55 5.925 10.4031 5.05313 9.12813 5C8.94688 4.99375 8.84063 5.19062 8.89688 5.36562C8.9625 5.56562 9 5.77813 9 6Z" fill="var(--fill-0, white)" fill-opacity="0.5"/>
</g>
</g>
<defs>
<clipPath id="clip0_0_12">
<path d="M0 0H18V16H0V0Z" fill="white"/>
</clipPath>
</defs>
</svg>
